<svg xmlns="http://www.w3.org/2000/svg" viewBox="0 0 323 68" fill="white">
  <g id="fredonia-f">
    <path class="colored-path" d="M45.6,8.5L22.9,0L0,8.5l22.9,11.3l0,8.7L7.1,20.8v8.7l15.8,7.8v8.9l15.7-8.1v14.3l7-3.5L45.6,8.5z M38.5,30 l-9.4-4.6l9.4-4.6L38.5,30z"></path>
    <polygon class="st0" points="7.1,38.1 21.4,45.2 7.1,52.4 	"></polygon>
  </g>
  <path id="fredonia-text" d="M67.8,49.2h-7.1V8.7h25.6v6.4H67.8l0,10.7h16.7v6.4H67.8L67.8,49.2z M98,49.2l-7.1,0V8.7l16.2,0 c4.7,0,7.6,1.9,9.2,3.6c2.1,2.1,3.3,5.1,3.3,8.1c0,5.1-3.1,9.4-7.7,11.1l8,17.7h-6.9l-7.6-17l-7.3,0L98,49.2z M98,25.8l9.5,0 c3.6,0,5.5-2.8,5.5-5.4c0-3-2.4-5.3-5.5-5.3l-0.1,0H98V25.8z M151,49.2h-26.1V8.7H151v6.4h-18.9l0,10.7h16.8v6.4h-16.8v10.6h19 L151,49.2z M168.4,49.2H157V8.7h11.4c12.9,0,21.6,8.1,21.6,20.2C189.9,41,181.3,49.2,168.4,49.2z M164.2,42.8h3.8 c9.3,0,14.6-5.1,14.6-13.9s-5.3-13.9-14.6-13.9h-3.8V42.8z M271.3,49.5L246,24.1l0,25l-7.1,0l0-40.9l25.4,25.4l0-25l7,0L271.3,49.5z M284,49.2h-7.1V8.7h7.1V49.2z M323,49.2h-6.9l-3.6-8.2h-15.8l-3.6,8.2h-6.9l18.4-40.8L323,49.2z M299.5,34.6h10.1 c-2-4.4-4.1-9.3-5.1-11.5C303.5,25.5,301,31.3,299.5,34.6z M214.5,8.2c-11.9,0-20.9,8.9-20.9,20.8s9,20.8,20.9,20.8 c11.9,0,20.8-8.9,20.8-20.8S226.4,8.2,214.5,8.2z M214.5,43.7c-8.2,0-14.1-6.3-14.1-14.8s5.9-14.8,14.1-14.8 c8.3,0,14.1,6.3,14.1,14.8S222.7,43.7,214.5,43.7z"></path>
  <path id="fredonia-suny" d="M93.2,64.6c1.6,0,2.7-0.8,2.7-2.2c0-1.3-0.8-1.9-2.2-2.5l-0.5-0.2c-0.9-0.3-1.2-0.6-1.2-1.2 c0-0.5,0.4-0.9,1.1-0.9c0.7,0,1,0.2,1.4,0.8l1-0.6c-0.5-0.8-1.3-1.2-2.4-1.2c-1.4,0-2.4,0.8-2.4,2c0,1.2,0.7,1.8,2,2.3l0.6,0.2 c0.9,0.4,1.4,0.7,1.4,1.4c0,0.6-0.6,1.1-1.5,1.1c-1,0-1.5-0.5-1.9-1.1l-1.1,0.6C90.7,63.8,91.6,64.6,93.2,64.6L93.2,64.6z M99.5,64.5h1.3v-6.8h2.5v-1.1H97v1.1h2.5V64.5L99.5,64.5z M102.7,64.5h1.3l0.6-1.4h3.6l0.6,1.4h1.4l-3.7-8h-0.1L102.7,64.5 L102.7,64.5z M105.1,62l0.9-2.1c0.2-0.5,0.4-1.1,0.4-1.2c0,0.1,0.2,0.7,0.4,1.2l0.9,2.1H105.1L105.1,62z M112.3,64.5h1.3v-6.8h2.5 v-1.1h-6.3v1.1h2.5V64.5L112.3,64.5z M117.5,64.5h5.5v-1.1h-4.2V61h3.6V60h-3.6v-2.3h4v-1.1h-5.4V64.5L117.5,64.5z M131.2,64.6 c1.8,0,3.2-1,3.2-2.9v-5.1h-1.3v5c0,1.3-0.7,1.8-1.9,1.8c-1.2,0-1.9-0.6-1.9-1.8v-5H128v5.1C128,63.6,129.3,64.6,131.2,64.6 L131.2,64.6z M143.2,64.5h0.2v-8h-1.2v4.3c0,0.4,0.1,1.1,0.1,1.1s-0.5-0.6-0.8-0.9l-4.6-4.7h-0.2v8h1.2v-4.3c0-0.5-0.1-1.1-0.1-1.1 s0.5,0.5,0.8,0.9L143.2,64.5L143.2,64.5z M145.7,64.5h1.3v-7.9h-1.3V64.5L145.7,64.5z M152.1,64.5h0.2l3.6-8h-1.3l-1.9,4.2 c-0.3,0.5-0.5,1.4-0.5,1.4s-0.3-0.9-0.5-1.4l-1.9-4.2h-1.4L152.1,64.5L152.1,64.5z M157.3,64.5h5.5v-1.1h-4.2V61h3.6V60h-3.6v-2.3h4 v-1.1h-5.4V64.5L157.3,64.5z M164.7,64.5h1.3v-2.9h1.5l1.8,2.9h1.5l-2-3.1c1-0.3,1.7-1.1,1.7-2.3c0-1.7-1.3-2.5-3.1-2.5h-2.8V64.5 L164.7,64.5z M166,60.5v-2.8h1.5c1.1,0,1.8,0.4,1.8,1.4c0,1-0.6,1.4-1.8,1.4H166L166,60.5z M174.8,64.6c1.6,0,2.7-0.8,2.7-2.2 c0-1.3-0.8-1.9-2.2-2.5l-0.5-0.2c-0.9-0.3-1.2-0.6-1.2-1.2c0-0.5,0.4-0.9,1.1-0.9c0.7,0,1,0.2,1.4,0.8l1-0.6 c-0.5-0.8-1.3-1.2-2.4-1.2c-1.4,0-2.4,0.8-2.4,2c0,1.2,0.7,1.8,2,2.3l0.6,0.2c0.9,0.4,1.4,0.7,1.4,1.4c0,0.6-0.6,1.1-1.5,1.1 c-1,0-1.5-0.5-1.9-1.1l-1.1,0.6C172.2,63.8,173.2,64.6,174.8,64.6L174.8,64.6z M179.3,64.5h1.3v-7.9h-1.3V64.5L179.3,64.5z M184.6,64.5h1.3v-6.8h2.5v-1.1h-6.3v1.1h2.5V64.5L184.6,64.5z M192.4,64.5h1.3v-3l2.8-4.9h-1.4l-1.6,2.8c-0.2,0.4-0.5,1.1-0.5,1.1 s-0.3-0.7-0.5-1.1l-1.6-2.8h-1.5l2.9,5V64.5L192.4,64.5z M205.1,64.6c2.4,0,4.3-1.7,4.3-4c0-2.4-1.9-4-4.3-4c-2.4,0-4.4,1.7-4.4,4 C200.7,62.9,202.7,64.6,205.1,64.6L205.1,64.6z M205.1,63.5c-1.8,0-3-1.3-3-2.9c0-1.7,1.3-2.9,3-2.9c1.8,0,3,1.3,3,2.9 C208.1,62.2,206.9,63.5,205.1,63.5L205.1,63.5z M211.3,64.5h1.3v-3.2h3.6v-1.1h-3.6v-2.5h3.9v-1.1h-5.3V64.5L211.3,64.5z M228,64.5 h0.2v-8h-1.2v4.3c0,0.4,0.1,1.1,0.1,1.1s-0.5-0.6-0.8-0.9l-4.6-4.7h-0.2v8h1.2v-4.3c0-0.5-0.1-1.1-0.1-1.1s0.5,0.5,0.8,0.9L228,64.5 L228,64.5z M230.4,64.5h5.5v-1.1h-4.2V61h3.6V60h-3.6v-2.3h4v-1.1h-5.4V64.5L230.4,64.5z M240.1,64.5h0.2l2.1-4.7 c0.2-0.4,0.4-0.9,0.4-0.9c0,0,0.2,0.6,0.3,0.9l2.1,4.7h0.2l2.9-8H247l-1.5,4.2c-0.2,0.4-0.3,1.1-0.3,1.1c0-0.1-0.2-0.7-0.4-1.1 l-1.9-4.3h-0.2l-1.9,4.3c-0.2,0.4-0.4,1.1-0.4,1.1c0,0-0.2-0.7-0.3-1.1l-1.5-4.2h-1.4L240.1,64.5L240.1,64.5z M255.1,64.5h1.3v-3 l2.8-4.9h-1.4l-1.6,2.8c-0.2,0.4-0.5,1.1-0.5,1.1s-0.3-0.7-0.5-1.1l-1.6-2.8h-1.5l2.9,5V64.5L255.1,64.5z M263.9,64.6 c2.4,0,4.3-1.7,4.3-4c0-2.4-1.9-4-4.3-4c-2.4,0-4.4,1.7-4.4,4C259.5,62.9,261.5,64.6,263.9,64.6L263.9,64.6z M263.9,63.5 c-1.8,0-3-1.3-3-2.9c0-1.7,1.3-2.9,3-2.9s3,1.3,3,2.9C266.9,62.2,265.6,63.5,263.9,63.5L263.9,63.5z M270.1,64.5h1.3v-2.9h1.5 l1.8,2.9h1.5l-2-3.1c1-0.3,1.7-1.1,1.7-2.3c0-1.7-1.3-2.5-3.1-2.5h-2.8V64.5L270.1,64.5z M271.4,60.5v-2.8h1.5 c1.1,0,1.8,0.4,1.8,1.4c0,1-0.6,1.4-1.8,1.4H271.4L271.4,60.5z M277.9,64.5h1.3v-2.4l1-1.1l2.6,3.5h1.6l-3.3-4.4l3-3.5h-1.5 l-2.8,3.2c-0.2,0.3-0.5,0.7-0.7,1.1c0-0.3,0.1-0.8,0.1-1.2v-3.1h-1.3V64.5L277.9,64.5z"></path>
</svg>