<svg viewBox="0 0 130 25" xmlns="http://www.w3.org/2000/svg" fill="#effdc0">
  <path d="M29.3477 0.461426L24.2653 17.8382L19.5088 2.32074C19.1706 1.21622 18.1405 0.461426 16.9738 0.461426C15.807 0.461426 14.7746 1.21843 14.4376 2.32516L9.71353 17.8394L4.66473 0.461426H0L7.31062 24.5484H11.8018L16.9894 7.51575L22.1771 24.5484H26.703L33.9789 0.461426H29.3488H29.3477Z"></path>
  <path d="M40.6981 0.461426C39.397 0.461426 38.2302 1.25385 37.7633 2.45465L29.1729 24.5495H33.9081L35.9919 18.9406H45.402L47.4858 24.5495H52.2558L43.6306 2.45133C43.1626 1.25274 41.9969 0.462532 40.697 0.462532L40.6981 0.461426ZM37.424 15.0858L40.697 6.27731L43.9699 15.0858H37.424Z"></path>
  <path d="M90.0679 18.2522L82.6878 0.461426H77.3613V24.5484H81.6778V8.58264L87.6649 22.9591C88.0658 23.9209 89.0142 24.5484 90.0656 24.5484C91.1193 24.5484 92.0688 23.9186 92.4685 22.9547L98.4232 8.58153V24.5484H102.74V0.461426H97.4479L90.0679 18.2511V18.2522Z"></path>
  <path d="M117.529 0C110.432 0 105.022 5.38204 105.022 12.4651C105.022 19.5482 110.433 25 117.529 25C124.624 25 130 19.5836 130 12.4651C130 5.34663 124.625 0 117.529 0ZM117.529 21.0423C112.821 21.0423 109.273 17.327 109.273 12.4662C109.273 7.60547 112.821 3.95879 117.529 3.95879C122.236 3.95879 125.784 7.63978 125.784 12.4662C125.784 17.2927 122.201 21.0423 117.529 21.0423Z"></path>
  <path d="M72.8567 11.042H63.2955V14.9654H70.9879C70.3295 18.4903 67.4541 20.9694 63.6717 21.0402C59.0226 21.1265 55.2447 17.4123 55.0823 12.8194C54.9066 7.82029 58.4762 3.96001 63.2249 3.96001C66.3165 3.96001 68.8448 5.4873 69.9342 7.81365L73.5879 6.04288C72.2879 2.46702 68.0722 0.0012207 63.2249 0.0012207C56.1998 0.0012207 50.8252 5.38216 50.8252 12.4653C50.8252 19.5483 56.164 24.999 63.2249 24.999C70.2858 24.999 75.1678 20.1725 75.1678 13.3329C75.1678 13.3252 75.1678 13.3185 75.1678 13.3108C75.1656 12.0547 74.1276 11.0409 72.8567 11.0409V11.042Z"></path>
</svg>