<svg xmlns="http://www.w3.org/2000/svg" viewBox="0 0 460.95558 77.59733">
<defs>
  <style>
  .cls-1{fill:none;stroke:#020000;stroke-miterlimit:10;stroke-width:0.97597px;}
  .cls-2{fill:#39b54a;}
  .cls-3{fill:#0067b1;}
  .cls-4{fill:#020000;}
  </style>
</defs>
<line class="cls-1" x1="491.0005" y1="2.5096" x2="491.5005" y2="59.0096"/>
<path class="cls-2" d="M441.59648,30.79131a9.01305,9.01305,0,0,0-8.555,6.18h-6.352a18.52558,18.52558,0,0,0-7.115-11.94l3.065-5.304a9.00907,9.00907,0,1,0-4.387-2.707l-3.174,5.496a18.63135,18.63135,0,0,0-13.904.191l-3.063-5.297a9.01092,9.01092,0,1,0-4.531,2.44l3.174,5.503a18.50392,18.50392,0,0,0-6.709,11.618h-6.352a9.02021,9.02021,0,1,0,.151,5.151h6.131a18.49539,18.49539,0,0,0,6.779,12.129l-3.174,5.506a9.01935,9.01935,0,1,0,4.535,2.444l3.061-5.297a18.59437,18.59437,0,0,0,13.9.187l3.174,5.496a9.02419,9.02419,0,1,0,4.389-2.705l-3.067-5.306a18.50955,18.50955,0,0,0,7.19-12.454h6.132a9.01047,9.01047,0,1,0,8.702-11.331m-26.85,20.06a12.75419,12.75419,0,1,1,3.143-19.532l-7.227,4.173-6.463-1.728a2.17641,2.17641,0,0,0-2.598,1.31l7.475,12.955a2.18,2.18,0,0,0,2.441-1.588l1.735-6.466,7.228-4.172a12.75813,12.75813,0,0,1-5.734,15.048"/>
<path class="cls-3" d="M26.917,32.79271a11.20378,11.20378,0,0,0-8.774-3.941c-7.287,0-11.004,5.874-11.004,12.492s4.461,11.971,11.376,11.971a10.45106,10.45106,0,0,0,8.551-3.941l4.759,4.759c-3.495,3.867-8.254,5.429-13.385,5.429-10.856,0-18.44-7.511-18.44-18.367s7.436-18.589,18.44-18.589a18.07092,18.07092,0,0,1,13.534,5.577Z"/>
<path class="cls-3" d="M68.1479,23.42411h6.246v5.502h.149c.669-2.082,4.981-6.395,11.302-6.395,5.205,0,8.774,2.231,11.005,6.544a12.73435,12.73435,0,0,1,11.153-6.544c10.856,0,13.384,7.734,13.384,15.615v20.523h-6.692v-19.63c0-5.354-1.115-10.261-7.585-10.261-6.468,0-8.997,4.387-8.997,10.632v19.259h-6.692v-18.441c0-6.692-.966-11.45-7.435-11.45-4.833,0-9.146,3.643-9.146,11.599v18.292h-6.692Z"/>
<path class="cls-3" d="M162.3515,41.04371c0,10.561-7.07,18.521-17.92,18.521a16.30416,16.30416,0,0,1-7.54-1.821v-6.37a11.75851,11.75851,0,0,0,6.72,1.941c7.14,0,11.6-5.13,11.6-12.271,0-7.14-4.46-12.27-11.6-12.27s-11.6,5.13-11.6,12.27v36.11h-6.69v-53.73h6.69v5.06h.15c2.6-3.8,7.51-5.95,12.27-5.95,10.93,0,17.92,8.1,17.92,18.51"/>
<path class="cls-3" d="M195.5298,58.66871h-6.692v-5.428h-.149c-1.71,3.718-6.171,6.321-11.599,6.321-6.841,0-12.789-4.09-12.789-13.459v-22.679h6.691v20.82c0,6.617,3.793,9.071,8.031,9.071,5.577,0,9.815-3.569,9.815-11.749v-18.142h6.692Z"/>
<path class="cls-3" d="M219.708,32.27221a8.939,8.939,0,0,0-7.212-3.495c-3.123,0-5.874,1.413-5.874,3.941,0,4.239,6.022,4.833,8.997,5.503,5.799,1.412,10.26,3.643,10.26,10.261,0,7.956-7.286,11.079-14.276,11.079-5.8,0-10.112-1.487-13.607-6.246l5.056-4.164c2.156,2.156,4.685,4.164,8.551,4.164,3.42,0,7.138-1.413,7.138-4.462,0-4.015-5.576-4.759-8.476-5.428-5.725-1.412-10.782-3.271-10.782-10.038,0-7.361,6.767-10.856,13.384-10.856,4.685,0,9.518,1.637,12.046,5.8Z"/>
<rect class="cls-2" x="229.11149" y="2.45551" width="6.692" height="56.213"/>
<path class="cls-2" d="M269.21919,34.281v24.38h-6.25V41.711h-3.57c-6.32,0-14.05,1.12-14.05,6.77,0,4.01,2.97,5.72,7.58,5.72a10.76834,10.76834,0,0,0,5.17-1.17v5.01a15.63191,15.63191,0,0,1-7.25,1.52c-6.54,0-12.19-3.719-12.19-10.56,0-9.07,8.7-12.2,19.4-12.2h4.91v-1.48c0-3.65-2.68-7.44-8.4-7.44-5.13,0-7.59,2.16-10.04,4.02l-4.01-4.17a20.78536,20.78536,0,0,1,13.97-5.2c10.41,0,14.73,5.65,14.73,11.75"/>
<path class="cls-2" d="M311.08149,41.04371c0,10.41-6.99,18.521-17.92,18.521a16.36755,16.36755,0,0,1-7.399-1.781v-6.32a11.738,11.738,0,0,0,6.59,1.851c7.129,0,11.599-5.13,11.599-12.271,0-7.14-4.47-12.27-11.599-12.27-7.141,0-11.601,5.13-11.601,12.27v17.62h-6.7v-56.21h6.7v26.03h.15c2.37-3.649,7.21-5.95,12.26-5.95,10.86,0,17.92,7.95,17.92,18.51"/>
<path class="cls-2" d="M333.43791,32.27221a8.93811,8.93811,0,0,0-7.213-3.495c-3.123,0-5.874,1.413-5.874,3.941,0,4.239,6.024,4.833,8.997,5.503,5.8,1.412,10.262,3.643,10.262,10.261,0,7.956-7.287,11.079-14.276,11.079-5.8,0-10.113-1.487-13.608-6.246l5.056-4.164c2.157,2.156,4.684,4.164,8.552,4.164,3.419,0,7.137-1.413,7.137-4.462,0-4.015-5.576-4.759-8.476-5.428-5.726-1.412-10.782-3.271-10.782-10.038,0-7.361,6.767-10.856,13.384-10.856,4.685,0,9.518,1.637,12.046,5.8Z"/>
<path class="cls-3" d="M63.6269,34.281v24.38h-6.25V41.711h-3.57c-6.32,0-14.05,1.12-14.05,6.77,0,4.01,2.97,5.72,7.58,5.72a10.7685,10.7685,0,0,0,5.17-1.17v5.01a15.632,15.632,0,0,1-7.25,1.52c-6.54,0-12.19-3.719-12.19-10.56,0-9.07,8.7-12.2,19.4-12.2h4.91v-1.48c0-3.65-2.68-7.44-8.4-7.44-5.13,0-7.59,2.16-10.04,4.02l-4.01-4.17a20.78536,20.78536,0,0,1,13.97-5.2c10.41,0,14.73,5.65,14.73,11.75"/>
<path class="cls-2" d="M342.60661,19.65131a2.997,2.997,0,1,1-2.997,2.997,2.9812,2.9812,0,0,1,2.997-2.997m0,5.559a2.56387,2.56387,0,1,0-2.466-2.562,2.48834,2.48834,0,0,0,2.466,2.562m-1.143-4.318h1.321c.829,0,1.224.33,1.224.999a.9065.9065,0,0,1-.926.959l1.007,1.547h-.573l-.95-1.507h-.572v1.507h-.531Zm.531,1.563h.548c.475,0,.934-.024.934-.588,0-.483-.419-.54-.781-.54h-.701Z"/>
</svg>