<?xml version="1.0" encoding="UTF-8"?> <svg xmlns="http://www.w3.org/2000/svg" id="Layer_1" viewBox="0 0 723.07 222.62"><defs><style>.crisp-logo-v2{fill:#007672;}</style></defs><path class="crisp-logo-v2" d="m514.36,3.14h35.13v13.3c2.38-1.75,4.35-3.3,6.41-4.71,8.67-5.93,18.35-9.24,28.71-10.53,11.34-1.41,22.57-.69,33.54,2.63,14.7,4.45,27.16,12.41,37.11,24.16,10.89,12.87,17.19,27.72,19.15,44.45,2.37,20.28-1.35,39.3-12.07,56.76-7.25,11.8-17.07,20.97-29.28,27.61-13.82,7.52-28.61,10.34-44.14,9.19-13.84-1.02-26.52-5.47-37.32-14.52-.54-.45-1.11-.88-1.96-1.55v72.69h-35.28V3.14Zm35.21,79.99c0,9.03-.01,18.06.02,27.09,0,.83.11,1.79.54,2.45,3.2,4.94,7.32,8.99,12.19,12.31,8.57,5.84,18.11,8.42,28.38,8.49,18.34.12,32.5-7.5,41.59-23.5,8.39-14.77,9.07-30.44,3.29-46.26-4.33-11.86-12.31-20.68-23.8-26.17-7.76-3.7-15.97-4.62-24.44-4.07-15.23.99-27.54,7.44-36.71,19.69-.62.83-1.02,2.04-1.03,3.08-.08,8.96-.05,17.92-.05,26.89Z"></path><path class="crisp-logo-v2" d="m147.69,30.46c-8.46,7.49-16.82,14.89-24.99,22.13-3.67-3.27-7.07-6.7-10.86-9.61-16.66-12.78-43.19-13.1-60.1,2.64-11.17,10.4-15.7,23.47-15.73,38.33-.02,10.83,2.77,20.99,9.19,29.8,9.41,12.93,22.28,19.46,38.33,19.38,14.69-.08,26.79-5.97,36.61-16.77.63-.69,1.26-1.38,1.9-2.06.09-.09.23-.13.5-.27,8.34,7.39,16.73,14.82,25.11,22.24-20.12,24.36-52.79,36.36-88.09,26.78C24.2,153.46,2.58,122.17.23,89.76-2.6,50.77,20.86,16.26,55.63,4.91c33.35-10.89,69.09-1.88,92.05,25.55Z"></path><path class="crisp-logo-v2" d="m363.54,133.34c9.03-6.07,18.11-12.18,27.35-18.4.85,1.35,1.59,2.6,2.4,3.81,4.3,6.47,9.47,12.1,16.92,14.83,9.94,3.65,19.93,3.77,29.52-1.3,7.86-4.15,9.46-14.97,3.36-21.71-3.42-3.78-7.85-6.03-12.41-7.93-8.33-3.47-16.82-6.56-25.13-10.07-9.16-3.87-17.35-9.22-23.71-17.03-11.45-14.04-14.09-35.25-5.07-50.81,5.1-8.8,12.44-15.19,21.78-19.12,17.34-7.3,34.64-6.83,51.74.89,9.06,4.09,16.94,11.96,22.16,21.74-7.83,5.91-15.67,11.83-23.37,17.65-2.42-2.86-4.59-5.83-7.16-8.4-7.92-7.95-20.5-9.57-30.22-4.46-8.68,4.56-8.1,14.81-3.92,20.32,2.91,3.84,6.93,6.11,11.18,7.9,8.31,3.52,16.76,6.71,25.11,10.13,6.71,2.74,12.99,6.28,18.79,10.67,10.27,7.76,16.21,17.97,17.4,30.82,1.25,13.49-2.02,25.66-11.24,35.84-6.3,6.96-14.24,11.54-23.18,14.16-19.45,5.69-38.51,4.52-56.84-4.33-11.13-5.37-19.2-14.09-25.38-24.66-.06-.1-.03-.26-.06-.53Z"></path><path class="crisp-logo-v2" d="m296.85,3.19h35.13v160.37h-35.13V3.19Z"></path><g><path class="crisp-logo-v2" d="m178.4,163.63h35.23V37.82h-35.23v125.81Z"></path><path class="crisp-logo-v2" d="m213.63,3.26v34.57h54.82V3.26h-54.82Z"></path></g><path class="crisp-logo-v2" d="m687.84,128.69v34.57h35.23v-34.57h-35.23Z"></path><path class="crisp-logo-v2" d="m675.5,17.22c0-9.59,7.72-17.22,17.22-17.22s17.22,7.64,17.22,17.22-7.64,17.22-17.22,17.22-17.22-7.72-17.22-17.22Zm2.6,0c0,8.04,6.5,14.62,14.62,14.62s14.62-6.58,14.62-14.62-6.58-14.62-14.62-14.62-14.62,6.5-14.62,14.62Zm14.22,2.11h-3.41v7.8h-2.76V7.39h8.04c3.49,0,6.42,2.36,6.42,6.01,0,4.39-3.9,5.85-5.04,5.85l5.28,7.88h-3.41l-5.12-7.8Zm-3.41-9.5v6.99h5.28c1.87,0,3.57-1.38,3.57-3.41,0-2.19-1.71-3.57-3.57-3.57h-5.28Z"></path></svg> 